<svg height="42" viewBox="0 0 94 42" width="94" xmlns="http://www.w3.org/2000/svg"><g fill="none" fill-rule="evenodd"><path d="m48.385 11.983c.791 0 3.659-3.264 3.363-4.055-.297-.791-10.781-5.836-10.781-5.836s-3.066-1.483-5.638-1.682c-2.572-.198-10.089.692-10.089.692l-20.475 3.76s-4.154.495-4.451 1.582c-.297 1.089 0 11.573 4.056 18.299s5.725 9.623 14.54 9.99c2.374.099 3.73-6.015 4.353-8.407.501-1.932.903-4.096.676-5.811-.07-.534-.686-.909-.41-1.45.275-.539 3.674-.392 3.306 1.207-.055.238-.262.844-.023 1.866.531 2.273 4.25 13.455 10.604 16.977 6.354 3.523 19.406 3.315 22.169-.552s3.522-12.155 3.729-14.504c2.693-2.831 20.719-7.665 20.719-7.665s1.865-.414 3.039-1.658c1.174-1.242 2.9-3.453 3.315-3.384.414 1.588.138 6.077 1.242 7.044 1.105.967 1.312.176 1.865-1.934.76-2.9-.207-3.107-.829-4.42-.621-1.312.553-2.348-1.243-3.521-1.796-1.175-3.038-.208-4.765.414-1.727.621-20.305 6.698-22.377 6.976-2.072.276-13.467-.76-18.647-1.105s-15.834-1.564-18.577-.345c-1.243.552-1.965.286-2.577.138-.613-.148-2.043-.622-2.948-1.865-1.163-1.596-10.083-3.66-10.083-3.66l11.257-1.934s2.763-.345 3.937-.76c1.175-.414 5.871-3.384 8.426-3.107 2.556.276 7.045 2.417 10.083 5.938 3.036 3.522 3.234 2.772 3.234 2.772z" fill="#000" fill-rule="nonzero" transform="matrix(-1 0 0 1 94.002556 0)"/><path d="m74.0711687 16.5208476c3.0712971-2.1898759 14.2759846-6.0970034 16.6337864-6.2208583 2.3578017-.1238549-3.135884 14.6521083-6.7915026 18.0189854-3.6556186 3.3668772-5.9191995 3.5682363-7.9175942 2.7096105-1.9983947-.8586259-3.4474208-11.073994-1.9246896-14.5077376zm-39.1624572 3.5325235c7.6656223-.7577059 25.8925085-2.61311 28.5101776-2.11997 2.8532213 3.9436002-3.7240047 15.6680223-6.3735873 17.878414-5.0286601 3.3866331-15.6779003 4.4701733-19.1587543 2.474818-5.359193-4.5575556-4.1616759-18.1162457-2.977836-18.233262z" fill="#272931" stroke="#272931"/></g></svg>