<?xml version="1.0" standalone="no"?>
<!DOCTYPE svg PUBLIC "-//W3C//DTD SVG 20010904//EN"
 "http://www.w3.org/TR/2001/REC-SVG-20010904/DTD/svg10.dtd">
<svg version="1.0" xmlns="http://www.w3.org/2000/svg"
 width="94.000000pt" height="94.000000pt" viewBox="0 0 94.000000 94.000000"
 preserveAspectRatio="xMidYMid meet">
<metadata>
Created by potrace 1.11, written by Peter Selinger 2001-2013
</metadata>
<g transform="translate(0.000000,94.000000) scale(0.100000,-0.100000)"
fill="#000000" stroke="none">
<path d="M527 655 c-32 -12 -69 -31 -83 -40 l-26 -17 20 -21 21 -20 32 31 c17
17 47 38 66 47 33 16 37 16 86 -4 29 -11 72 -24 97 -27 52 -8 88 -23 55 -24
-11 0 -35 -9 -54 -21 -29 -17 -54 -21 -160 -24 -69 -2 -160 -6 -203 -10 -65
-5 -89 -2 -165 20 -48 14 -95 30 -103 34 -9 5 -30 12 -48 16 -30 6 -33 4 -47
-29 -10 -22 -12 -43 -7 -57 10 -26 21 -14 24 25 3 31 6 32 32 7 12 -10 59 -31
106 -46 123 -40 140 -50 140 -83 0 -49 29 -118 56 -132 33 -18 140 -16 185 3
44 18 91 83 112 152 18 63 33 67 40 11 4 -25 13 -61 21 -80 13 -32 16 -34 53
-29 54 7 70 18 104 71 32 51 45 91 54 164 6 54 17 48 -140 77 -173 32 -203 33
-268 6z"/>
</g>
</svg>
